# xmcd CD database file
#
# Track frame offsets:
#	150
#	18357
#	34520
#
# Disc length: 692 seconds
#
# Revision: 0
# Processed by: cddbd v1.5.1PL0 Copyright (c) Steve Scherf et al.
# Submitted via: CDex 1.51
#
DISCID=1602b203
DTITLE=bean bag - 恋愛夜明け前
DYEAR=1900
DGENRE=JPop
TTITLE0=恋愛夜明け前
TTITLE1=同棲願望
TTITLE2=ＥＣＨＯ
EXTD=
EXTT0=
EXTT1=
EXTT2=
PLAYORDER=
